{"title":"The Girl With The Dragon Tattoo 2011 DvDScr XviD Ac3 Feel-Free","uid":6979645,"size":1133811389,"categoryP":"video","categoryS":"movies","magnet":"?xt=urn:btih:19dda1806bdeadfdac0161631770df30647b9a9d&amp;dn=The+Girl+With+The+Dragon+Tattoo+2011+DvDScr+XviD+Ac3+Feel-Free&amp;tr=udp%3A%2F%2Ftracker.openbittorrent.com%3A80&amp;tr=udp%3A%2F%2Fopen.demonii.com%3A1337&amp;tr=udp%3A%2F%2Ftracker.coppersurfer.tk%3A6969&amp;tr=udp%3A%2F%2Fexodus.desync.com%3A6969","seeders":9,"leechers":2,"uploader":"SpillShit","files":10,"time":1327357061,"description":"Genre: Crime | Drama | Mystery\nLanguage:English\nIMDb:  &lt;a href=&quot; http://www.imdb.com/title/tt1568346/&quot; rel=&quot;nofollow&quot; target=&quot;_NEW&quot;&gt; http://www.imdb.com/title/tt1568346/&lt;/a&gt;\nSource:DVDscr Thanks!\nEncoder:Tony\n\nFormat : AVI\nFormat/Info : Audio Video Interleave\nFile size : 1.05 GiB\nDuration : 2h 38mn\nOverall bit rate : 955 Kbps\n\nVideo\nID : 0\nFormat : MPEG-4 Visual\nFormat profile : Advanced Simple@L5\nFormat settings, BVOP : 1\nFormat settings, QPel : No\nFormat settings, GMC : No warppoints\nFormat settings, Matrix : Default (H.263)\nCodec ID : XVID\nCodec ID/Hint : XviD\nDuration : 2h 38mn\nBit rate : 498 Kbps\nWidth : 640 pixels\nHeight : 264 pixels\nDisplay aspect ratio : 2.40:1\nFrame rate : 23.976 fps\nColor space : YUV\nChroma subsampling : 4:2:0\nBit depth : 8 bits\nScan type : Progressive\nCompression mode : Lossy\nBits/(Pixel*Frame) : 0.123\nStream size : 563 MiB (52%)\nWriting library : XviD 1.2.1 (UTC 2008-12-04)\n\nAudio\nID : 1\nFormat : AC-3\nFormat/Info : Audio Coding 3\nMode extension : CM (complete main)\nCodec ID : 2000\nDuration : 2h 38mn\nBit rate mode : Constant\nBit rate : 448 Kbps\nChannel(s) : 2 channels\nChannel positions : Front: L R\nSampling rate : 48.0 KHz\nBit depth : 16 bits\nCompression mode : Lossy\nStream size : 507 MiB (47%)\nAlignment : Aligned on interleaves\nInterleave, duration : 42 ms (1.00 video frame)\nInterleave, preload duration : 512 ms\n\n\nPlot:\nJournalist Mikael Blomkvist is aided in his search for a woman who has been missing for forty years by Lisbeth Salander, a young computer hacker","torrent":{"xt":"urn:btih:19dda1806bdeadfdac0161631770df30647b9a9d","amp;dn":"The+Girl+With+The+Dragon+Tattoo+2011+DvDScr+XviD+Ac3+Feel-Free","amp;tr":["udp%3A%2F%2Ftracker.openbittorrent.com%3A80","udp%3A%2F%2Fopen.demonii.com%3A1337","udp%3A%2F%2Ftracker.coppersurfer.tk%3A6969","udp%3A%2F%2Fexodus.desync.com%3A6969"],"infoHash":"19dda1806bdeadfdac0161631770df30647b9a9d","infoHashBuffer":{"type":"Buffer","data":[25,221,161,128,107,222,173,253,172,1,97,99,23,112,223,48,100,123,154,157]},"announce":[],"urlList":[]}}